M48
; DRILL file {KiCad (5.1.10)-1} date 11/12/21 00:23:47
; FORMAT={-:-/ absolute / metric / decimal}
; #@! TF.CreationDate,2021-11-12T00:23:47+01:00
; #@! TF.GenerationSoftware,Kicad,Pcbnew,(5.1.10)-1
; #@! TF.FileFunction,Plated,1,4,PTH
FMAT,2
METRIC
T1C0.200
T2C0.500
T3C0.700
T4C1.000
%
G90
G05
T1
X104.902Y-73.914
X106.3Y-87.3
X106.3Y-90.6
X106.426Y-88.646
X106.934Y-80.518
X106.934Y-95.25
X106.95Y-87.3
X106.95Y-90.6
X107.6Y-87.3
X107.6Y-90.6
X108.204Y-80.518
X108.25Y-87.3
X108.25Y-90.6
X108.458Y-89.154
X108.712Y-73.914
X108.712Y-74.422
X108.712Y-76.581
X109.22Y-73.914
X109.22Y-74.422
X109.22Y-76.581
X109.347Y-84.328
X109.347Y-84.836
X109.474Y-88.138
X109.55Y-87.3
X109.601Y-96.774
X109.728Y-73.914
X109.728Y-74.422
X109.728Y-76.581
X109.855Y-84.328
X109.855Y-84.836
X110.69Y-88.084
X110.85Y-90.6
X110.998Y-96.52
X111.252Y-94.234
X111.5Y-90.6
X112.014Y-80.518
X112.145Y-87.3
X112.776Y-86.36
X114.3Y-81.153
X114.3Y-94.488
X115.062Y-88.9
X115.697Y-84.455
X116.332Y-93.599
X116.332Y-94.107
X116.84Y-73.914
X116.84Y-93.599
X116.84Y-94.107
X118.11Y-76.708
T3
X108.065Y-75.52
X112.915Y-75.52
T4
X104.14Y-78.74
X104.14Y-81.28
X104.14Y-83.82
X104.14Y-86.36
X104.14Y-88.9
X104.14Y-91.44
X104.14Y-93.98
X104.14Y-96.52
X119.38Y-81.28
X119.38Y-83.82
X119.38Y-86.36
X119.38Y-88.9
X119.38Y-91.44
X119.38Y-93.98
X119.38Y-96.52
T2
X106.89Y-72.47G85X106.89Y-73.27
G05
X114.09Y-72.47G85X114.09Y-73.27
G05
T0
M30
