G04 #@! TF.GenerationSoftware,KiCad,Pcbnew,(5.1.10)-1*
G04 #@! TF.CreationDate,2021-11-12T00:22:47+01:00*
G04 #@! TF.ProjectId,devboard-stm32g030f6p6,64657662-6f61-4726-942d-73746d333267,rev?*
G04 #@! TF.SameCoordinates,Original*
G04 #@! TF.FileFunction,Legend,Bot*
G04 #@! TF.FilePolarity,Positive*
%FSLAX46Y46*%
G04 Gerber Fmt 4.6, Leading zero omitted, Abs format (unit mm)*
G04 Created by KiCad (PCBNEW (5.1.10)-1) date 2021-11-12 00:22:47*
%MOMM*%
%LPD*%
G01*
G04 APERTURE LIST*
%ADD10C,0.150000*%
%ADD11C,0.130000*%
%ADD12C,0.120000*%
%ADD13O,1.700000X1.700000*%
%ADD14R,1.700000X1.700000*%
%ADD15O,1.070000X2.140000*%
%ADD16C,1.300000*%
G04 APERTURE END LIST*
D10*
X120054452Y-77414380D02*
X119929452Y-76414380D01*
X119691357Y-76414380D01*
X119554452Y-76462000D01*
X119471119Y-76557238D01*
X119435404Y-76652476D01*
X119411595Y-76842952D01*
X119429452Y-76985809D01*
X119500880Y-77176285D01*
X119560404Y-77271523D01*
X119667547Y-77366761D01*
X119816357Y-77414380D01*
X120054452Y-77414380D01*
X118667547Y-77366761D02*
X118768738Y-77414380D01*
X118959214Y-77414380D01*
X119048500Y-77366761D01*
X119084214Y-77271523D01*
X119036595Y-76890571D01*
X118977071Y-76795333D01*
X118875880Y-76747714D01*
X118685404Y-76747714D01*
X118596119Y-76795333D01*
X118560404Y-76890571D01*
X118572309Y-76985809D01*
X119060404Y-77081047D01*
X118209214Y-76747714D02*
X118054452Y-77414380D01*
X117733023Y-76747714D01*
X117036595Y-76890571D02*
X116899690Y-76938190D01*
X116858023Y-76985809D01*
X116822309Y-77081047D01*
X116840166Y-77223904D01*
X116899690Y-77319142D01*
X116953261Y-77366761D01*
X117054452Y-77414380D01*
X117435404Y-77414380D01*
X117310404Y-76414380D01*
X116977071Y-76414380D01*
X116887785Y-76462000D01*
X116846119Y-76509619D01*
X116810404Y-76604857D01*
X116822309Y-76700095D01*
X116881833Y-76795333D01*
X116935404Y-76842952D01*
X117036595Y-76890571D01*
X117369928Y-76890571D01*
X116292547Y-77414380D02*
X116381833Y-77366761D01*
X116423500Y-77319142D01*
X116459214Y-77223904D01*
X116423500Y-76938190D01*
X116363976Y-76842952D01*
X116310404Y-76795333D01*
X116209214Y-76747714D01*
X116066357Y-76747714D01*
X115977071Y-76795333D01*
X115935404Y-76842952D01*
X115899690Y-76938190D01*
X115935404Y-77223904D01*
X115994928Y-77319142D01*
X116048500Y-77366761D01*
X116149690Y-77414380D01*
X116292547Y-77414380D01*
X115102071Y-77414380D02*
X115036595Y-76890571D01*
X115072309Y-76795333D01*
X115161595Y-76747714D01*
X115352071Y-76747714D01*
X115453261Y-76795333D01*
X115096119Y-77366761D02*
X115197309Y-77414380D01*
X115435404Y-77414380D01*
X115524690Y-77366761D01*
X115560404Y-77271523D01*
X115548500Y-77176285D01*
X115488976Y-77081047D01*
X115387785Y-77033428D01*
X115149690Y-77033428D01*
X115048500Y-76985809D01*
X114625880Y-77414380D02*
X114542547Y-76747714D01*
X114566357Y-76938190D02*
X114506833Y-76842952D01*
X114453261Y-76795333D01*
X114352071Y-76747714D01*
X114256833Y-76747714D01*
X113578261Y-77414380D02*
X113453261Y-76414380D01*
X113572309Y-77366761D02*
X113673500Y-77414380D01*
X113863976Y-77414380D01*
X113953261Y-77366761D01*
X113994928Y-77319142D01*
X114030642Y-77223904D01*
X113994928Y-76938190D01*
X113935404Y-76842952D01*
X113881833Y-76795333D01*
X113780642Y-76747714D01*
X113590166Y-76747714D01*
X113500880Y-76795333D01*
D11*
X120129357Y-78850285D02*
X120006142Y-78893142D01*
X119791857Y-78893142D01*
X119700785Y-78850285D01*
X119652571Y-78807428D01*
X119599000Y-78721714D01*
X119588285Y-78636000D01*
X119620428Y-78550285D01*
X119657928Y-78507428D01*
X119738285Y-78464571D01*
X119904357Y-78421714D01*
X119984714Y-78378857D01*
X120022214Y-78336000D01*
X120054357Y-78250285D01*
X120043642Y-78164571D01*
X119990071Y-78078857D01*
X119941857Y-78036000D01*
X119850785Y-77993142D01*
X119636500Y-77993142D01*
X119513285Y-78036000D01*
X119250785Y-77993142D02*
X118736500Y-77993142D01*
X119106142Y-78893142D02*
X118993642Y-77993142D01*
X118549000Y-78893142D02*
X118436500Y-77993142D01*
X118216857Y-78636000D01*
X117836500Y-77993142D01*
X117949000Y-78893142D01*
X117493642Y-77993142D02*
X116936500Y-77993142D01*
X117279357Y-78336000D01*
X117150785Y-78336000D01*
X117070428Y-78378857D01*
X117032928Y-78421714D01*
X117000785Y-78507428D01*
X117027571Y-78721714D01*
X117081142Y-78807428D01*
X117129357Y-78850285D01*
X117220428Y-78893142D01*
X117477571Y-78893142D01*
X117557928Y-78850285D01*
X117595428Y-78807428D01*
X116604357Y-78078857D02*
X116556142Y-78036000D01*
X116465071Y-77993142D01*
X116250785Y-77993142D01*
X116170428Y-78036000D01*
X116132928Y-78078857D01*
X116100785Y-78164571D01*
X116111500Y-78250285D01*
X116170428Y-78378857D01*
X116749000Y-78893142D01*
X116191857Y-78893142D01*
X115227571Y-78036000D02*
X115307928Y-77993142D01*
X115436500Y-77993142D01*
X115570428Y-78036000D01*
X115666857Y-78121714D01*
X115720428Y-78207428D01*
X115784714Y-78378857D01*
X115800785Y-78507428D01*
X115779357Y-78678857D01*
X115747214Y-78764571D01*
X115672214Y-78850285D01*
X115549000Y-78893142D01*
X115463285Y-78893142D01*
X115329357Y-78850285D01*
X115281142Y-78807428D01*
X115243642Y-78507428D01*
X115415071Y-78507428D01*
X114622214Y-77993142D02*
X114536500Y-77993142D01*
X114456142Y-78036000D01*
X114418642Y-78078857D01*
X114386500Y-78164571D01*
X114365071Y-78336000D01*
X114391857Y-78550285D01*
X114456142Y-78721714D01*
X114509714Y-78807428D01*
X114557928Y-78850285D01*
X114649000Y-78893142D01*
X114734714Y-78893142D01*
X114815071Y-78850285D01*
X114852571Y-78807428D01*
X114884714Y-78721714D01*
X114906142Y-78550285D01*
X114879357Y-78336000D01*
X114815071Y-78164571D01*
X114761500Y-78078857D01*
X114713285Y-78036000D01*
X114622214Y-77993142D01*
X114022214Y-77993142D02*
X113465071Y-77993142D01*
X113807928Y-78336000D01*
X113679357Y-78336000D01*
X113599000Y-78378857D01*
X113561500Y-78421714D01*
X113529357Y-78507428D01*
X113556142Y-78721714D01*
X113609714Y-78807428D01*
X113657928Y-78850285D01*
X113749000Y-78893142D01*
X114006142Y-78893142D01*
X114086500Y-78850285D01*
X114124000Y-78807428D01*
X112907928Y-77993142D02*
X112822214Y-77993142D01*
X112741857Y-78036000D01*
X112704357Y-78078857D01*
X112672214Y-78164571D01*
X112650785Y-78336000D01*
X112677571Y-78550285D01*
X112741857Y-78721714D01*
X112795428Y-78807428D01*
X112843642Y-78850285D01*
X112934714Y-78893142D01*
X113020428Y-78893142D01*
X113100785Y-78850285D01*
X113138285Y-78807428D01*
X113170428Y-78721714D01*
X113191857Y-78550285D01*
X113165071Y-78336000D01*
X113100785Y-78164571D01*
X113047214Y-78078857D01*
X112999000Y-78036000D01*
X112907928Y-77993142D01*
X111975785Y-78421714D02*
X112275785Y-78421714D01*
X112334714Y-78893142D02*
X112222214Y-77993142D01*
X111793642Y-77993142D01*
X111065071Y-77993142D02*
X111236500Y-77993142D01*
X111327571Y-78036000D01*
X111375785Y-78078857D01*
X111477571Y-78207428D01*
X111541857Y-78378857D01*
X111584714Y-78721714D01*
X111552571Y-78807428D01*
X111515071Y-78850285D01*
X111434714Y-78893142D01*
X111263285Y-78893142D01*
X111172214Y-78850285D01*
X111124000Y-78807428D01*
X111070428Y-78721714D01*
X111043642Y-78507428D01*
X111075785Y-78421714D01*
X111113285Y-78378857D01*
X111193642Y-78336000D01*
X111365071Y-78336000D01*
X111456142Y-78378857D01*
X111504357Y-78421714D01*
X111557928Y-78507428D01*
D12*
X119678285Y-75649142D02*
X119878285Y-75649142D01*
X119917571Y-75963428D02*
X119842571Y-75363428D01*
X119556857Y-75363428D01*
X119403285Y-75963428D02*
X119353285Y-75563428D01*
X119328285Y-75363428D02*
X119360428Y-75392000D01*
X119335428Y-75420571D01*
X119303285Y-75392000D01*
X119328285Y-75363428D01*
X119335428Y-75420571D01*
X119067571Y-75563428D02*
X119117571Y-75963428D01*
X119074714Y-75620571D02*
X119042571Y-75592000D01*
X118981857Y-75563428D01*
X118896142Y-75563428D01*
X118842571Y-75592000D01*
X118821142Y-75649142D01*
X118860428Y-75963428D01*
X118489000Y-75963428D02*
X118542571Y-75934857D01*
X118567571Y-75906285D01*
X118589000Y-75849142D01*
X118567571Y-75677714D01*
X118531857Y-75620571D01*
X118499714Y-75592000D01*
X118439000Y-75563428D01*
X118353285Y-75563428D01*
X118299714Y-75592000D01*
X118274714Y-75620571D01*
X118253285Y-75677714D01*
X118274714Y-75849142D01*
X118310428Y-75906285D01*
X118342571Y-75934857D01*
X118403285Y-75963428D01*
X118489000Y-75963428D01*
X118031857Y-75963428D02*
X117981857Y-75563428D01*
X117989000Y-75620571D02*
X117956857Y-75592000D01*
X117896142Y-75563428D01*
X117810428Y-75563428D01*
X117756857Y-75592000D01*
X117735428Y-75649142D01*
X117774714Y-75963428D01*
X117735428Y-75649142D02*
X117699714Y-75592000D01*
X117639000Y-75563428D01*
X117553285Y-75563428D01*
X117499714Y-75592000D01*
X117478285Y-75649142D01*
X117517571Y-75963428D01*
X117181857Y-75563428D02*
X117231857Y-75963428D01*
X117189000Y-75620571D02*
X117156857Y-75592000D01*
X117096142Y-75563428D01*
X117010428Y-75563428D01*
X116956857Y-75592000D01*
X116935428Y-75649142D01*
X116974714Y-75963428D01*
X116689000Y-75963428D02*
X116639000Y-75563428D01*
X116614000Y-75363428D02*
X116646142Y-75392000D01*
X116621142Y-75420571D01*
X116589000Y-75392000D01*
X116614000Y-75363428D01*
X116621142Y-75420571D01*
X116428285Y-75934857D02*
X116374714Y-75963428D01*
X116260428Y-75963428D01*
X116199714Y-75934857D01*
X116164000Y-75877714D01*
X116160428Y-75849142D01*
X116181857Y-75792000D01*
X116235428Y-75763428D01*
X116321142Y-75763428D01*
X116374714Y-75734857D01*
X116396142Y-75677714D01*
X116392571Y-75649142D01*
X116356857Y-75592000D01*
X116296142Y-75563428D01*
X116210428Y-75563428D01*
X116156857Y-75592000D01*
X115814000Y-75363428D02*
X115885428Y-75477714D01*
D10*
X113990380Y-94273809D02*
X112990380Y-94273809D01*
X113085619Y-94702380D02*
X113038000Y-94750000D01*
X112990380Y-94845238D01*
X112990380Y-95083333D01*
X113038000Y-95178571D01*
X113085619Y-95226190D01*
X113180857Y-95273809D01*
X113276095Y-95273809D01*
X113418952Y-95226190D01*
X113990380Y-94654761D01*
X113990380Y-95273809D01*
X113895142Y-96273809D02*
X113942761Y-96226190D01*
X113990380Y-96083333D01*
X113990380Y-95988095D01*
X113942761Y-95845238D01*
X113847523Y-95750000D01*
X113752285Y-95702380D01*
X113561809Y-95654761D01*
X113418952Y-95654761D01*
X113228476Y-95702380D01*
X113133238Y-95750000D01*
X113038000Y-95845238D01*
X112990380Y-95988095D01*
X112990380Y-96083333D01*
X113038000Y-96226190D01*
X113085619Y-96273809D01*
X113990380Y-81843809D02*
X112990380Y-81843809D01*
X112990380Y-82224761D01*
X113038000Y-82320000D01*
X113085619Y-82367619D01*
X113180857Y-82415238D01*
X113323714Y-82415238D01*
X113418952Y-82367619D01*
X113466571Y-82320000D01*
X113514190Y-82224761D01*
X113514190Y-81843809D01*
X113990380Y-82986666D02*
X113942761Y-82891428D01*
X113895142Y-82843809D01*
X113799904Y-82796190D01*
X113514190Y-82796190D01*
X113418952Y-82843809D01*
X113371333Y-82891428D01*
X113323714Y-82986666D01*
X113323714Y-83129523D01*
X113371333Y-83224761D01*
X113418952Y-83272380D01*
X113514190Y-83320000D01*
X113799904Y-83320000D01*
X113895142Y-83272380D01*
X113942761Y-83224761D01*
X113990380Y-83129523D01*
X113990380Y-82986666D01*
X113323714Y-83653333D02*
X113990380Y-83843809D01*
X113514190Y-84034285D01*
X113990380Y-84224761D01*
X113323714Y-84415238D01*
X113942761Y-85177142D02*
X113990380Y-85081904D01*
X113990380Y-84891428D01*
X113942761Y-84796190D01*
X113847523Y-84748571D01*
X113466571Y-84748571D01*
X113371333Y-84796190D01*
X113323714Y-84891428D01*
X113323714Y-85081904D01*
X113371333Y-85177142D01*
X113466571Y-85224761D01*
X113561809Y-85224761D01*
X113657047Y-84748571D01*
X113990380Y-85653333D02*
X113323714Y-85653333D01*
X113514190Y-85653333D02*
X113418952Y-85700952D01*
X113371333Y-85748571D01*
X113323714Y-85843809D01*
X113323714Y-85939047D01*
X112990380Y-88574761D02*
X113799904Y-88574761D01*
X113895142Y-88622380D01*
X113942761Y-88670000D01*
X113990380Y-88765238D01*
X113990380Y-88955714D01*
X113942761Y-89050952D01*
X113895142Y-89098571D01*
X113799904Y-89146190D01*
X112990380Y-89146190D01*
X113704666Y-89574761D02*
X113704666Y-90050952D01*
X113990380Y-89479523D02*
X112990380Y-89812857D01*
X113990380Y-90146190D01*
X113990380Y-91050952D02*
X113514190Y-90717619D01*
X113990380Y-90479523D02*
X112990380Y-90479523D01*
X112990380Y-90860476D01*
X113038000Y-90955714D01*
X113085619Y-91003333D01*
X113180857Y-91050952D01*
X113323714Y-91050952D01*
X113418952Y-91003333D01*
X113466571Y-90955714D01*
X113514190Y-90860476D01*
X113514190Y-90479523D01*
X112990380Y-91336666D02*
X112990380Y-91908095D01*
X113990380Y-91622380D02*
X112990380Y-91622380D01*
D12*
X114300000Y-80645000D02*
X114300000Y-86995000D01*
X114300000Y-88265000D02*
X114300000Y-92075000D01*
X114300000Y-97155000D02*
X114300000Y-93345000D01*
D10*
X109212000Y-88630000D02*
X109259619Y-88725238D01*
X109259619Y-88868095D01*
X109212000Y-89010952D01*
X109116761Y-89106190D01*
X109021523Y-89153809D01*
X108831047Y-89201428D01*
X108688190Y-89201428D01*
X108497714Y-89153809D01*
X108402476Y-89106190D01*
X108307238Y-89010952D01*
X108259619Y-88868095D01*
X108259619Y-88772857D01*
X108307238Y-88630000D01*
X108354857Y-88582380D01*
X108688190Y-88582380D01*
X108688190Y-88772857D01*
X108259619Y-88153809D02*
X109259619Y-88153809D01*
X109259619Y-87772857D01*
X109212000Y-87677619D01*
X109164380Y-87630000D01*
X109069142Y-87582380D01*
X108926285Y-87582380D01*
X108831047Y-87630000D01*
X108783428Y-87677619D01*
X108735809Y-87772857D01*
X108735809Y-88153809D01*
X108259619Y-87153809D02*
X109259619Y-87153809D01*
X109259619Y-86487142D02*
X109259619Y-86296666D01*
X109212000Y-86201428D01*
X109116761Y-86106190D01*
X108926285Y-86058571D01*
X108592952Y-86058571D01*
X108402476Y-86106190D01*
X108307238Y-86201428D01*
X108259619Y-86296666D01*
X108259619Y-86487142D01*
X108307238Y-86582380D01*
X108402476Y-86677619D01*
X108592952Y-86725238D01*
X108926285Y-86725238D01*
X109116761Y-86677619D01*
X109212000Y-86582380D01*
X109259619Y-86487142D01*
D12*
X107950000Y-78105000D02*
X107950000Y-97155000D01*
D10*
X117822023Y-96924761D02*
X117679166Y-96972380D01*
X117441071Y-96972380D01*
X117345833Y-96924761D01*
X117298214Y-96877142D01*
X117250595Y-96781904D01*
X117250595Y-96686666D01*
X117298214Y-96591428D01*
X117345833Y-96543809D01*
X117441071Y-96496190D01*
X117631547Y-96448571D01*
X117726785Y-96400952D01*
X117774404Y-96353333D01*
X117822023Y-96258095D01*
X117822023Y-96162857D01*
X117774404Y-96067619D01*
X117726785Y-96020000D01*
X117631547Y-95972380D01*
X117393452Y-95972380D01*
X117250595Y-96020000D01*
X116250595Y-96877142D02*
X116298214Y-96924761D01*
X116441071Y-96972380D01*
X116536309Y-96972380D01*
X116679166Y-96924761D01*
X116774404Y-96829523D01*
X116822023Y-96734285D01*
X116869642Y-96543809D01*
X116869642Y-96400952D01*
X116822023Y-96210476D01*
X116774404Y-96115238D01*
X116679166Y-96020000D01*
X116536309Y-95972380D01*
X116441071Y-95972380D01*
X116298214Y-96020000D01*
X116250595Y-96067619D01*
X115345833Y-96972380D02*
X115822023Y-96972380D01*
X115822023Y-95972380D01*
X117822023Y-94384761D02*
X117679166Y-94432380D01*
X117441071Y-94432380D01*
X117345833Y-94384761D01*
X117298214Y-94337142D01*
X117250595Y-94241904D01*
X117250595Y-94146666D01*
X117298214Y-94051428D01*
X117345833Y-94003809D01*
X117441071Y-93956190D01*
X117631547Y-93908571D01*
X117726785Y-93860952D01*
X117774404Y-93813333D01*
X117822023Y-93718095D01*
X117822023Y-93622857D01*
X117774404Y-93527619D01*
X117726785Y-93480000D01*
X117631547Y-93432380D01*
X117393452Y-93432380D01*
X117250595Y-93480000D01*
X116822023Y-94432380D02*
X116822023Y-93432380D01*
X116583928Y-93432380D01*
X116441071Y-93480000D01*
X116345833Y-93575238D01*
X116298214Y-93670476D01*
X116250595Y-93860952D01*
X116250595Y-94003809D01*
X116298214Y-94194285D01*
X116345833Y-94289523D01*
X116441071Y-94384761D01*
X116583928Y-94432380D01*
X116822023Y-94432380D01*
X115869642Y-94146666D02*
X115393452Y-94146666D01*
X115964880Y-94432380D02*
X115631547Y-93432380D01*
X115298214Y-94432380D01*
X117917261Y-90892380D02*
X117345833Y-90892380D01*
X117631547Y-91892380D02*
X117631547Y-90892380D01*
X117107738Y-90892380D02*
X116441071Y-91892380D01*
X116441071Y-90892380D02*
X117107738Y-91892380D01*
X117202976Y-89352380D02*
X117536309Y-88876190D01*
X117774404Y-89352380D02*
X117774404Y-88352380D01*
X117393452Y-88352380D01*
X117298214Y-88400000D01*
X117250595Y-88447619D01*
X117202976Y-88542857D01*
X117202976Y-88685714D01*
X117250595Y-88780952D01*
X117298214Y-88828571D01*
X117393452Y-88876190D01*
X117774404Y-88876190D01*
X116869642Y-88352380D02*
X116202976Y-89352380D01*
X116202976Y-88352380D02*
X116869642Y-89352380D01*
X117250595Y-85860000D02*
X117345833Y-85812380D01*
X117488690Y-85812380D01*
X117631547Y-85860000D01*
X117726785Y-85955238D01*
X117774404Y-86050476D01*
X117822023Y-86240952D01*
X117822023Y-86383809D01*
X117774404Y-86574285D01*
X117726785Y-86669523D01*
X117631547Y-86764761D01*
X117488690Y-86812380D01*
X117393452Y-86812380D01*
X117250595Y-86764761D01*
X117202976Y-86717142D01*
X117202976Y-86383809D01*
X117393452Y-86383809D01*
X116774404Y-86812380D02*
X116774404Y-85812380D01*
X116202976Y-86812380D01*
X116202976Y-85812380D01*
X115726785Y-86812380D02*
X115726785Y-85812380D01*
X115488690Y-85812380D01*
X115345833Y-85860000D01*
X115250595Y-85955238D01*
X115202976Y-86050476D01*
X115155357Y-86240952D01*
X115155357Y-86383809D01*
X115202976Y-86574285D01*
X115250595Y-86669523D01*
X115345833Y-86764761D01*
X115488690Y-86812380D01*
X115726785Y-86812380D01*
X117869642Y-83272380D02*
X117250595Y-83272380D01*
X117583928Y-83653333D01*
X117441071Y-83653333D01*
X117345833Y-83700952D01*
X117298214Y-83748571D01*
X117250595Y-83843809D01*
X117250595Y-84081904D01*
X117298214Y-84177142D01*
X117345833Y-84224761D01*
X117441071Y-84272380D01*
X117726785Y-84272380D01*
X117822023Y-84224761D01*
X117869642Y-84177142D01*
X116822023Y-84177142D02*
X116774404Y-84224761D01*
X116822023Y-84272380D01*
X116869642Y-84224761D01*
X116822023Y-84177142D01*
X116822023Y-84272380D01*
X116441071Y-83272380D02*
X115822023Y-83272380D01*
X116155357Y-83653333D01*
X116012500Y-83653333D01*
X115917261Y-83700952D01*
X115869642Y-83748571D01*
X115822023Y-83843809D01*
X115822023Y-84081904D01*
X115869642Y-84177142D01*
X115917261Y-84224761D01*
X116012500Y-84272380D01*
X116298214Y-84272380D01*
X116393452Y-84224761D01*
X116441071Y-84177142D01*
X115536309Y-83272380D02*
X115202976Y-84272380D01*
X114869642Y-83272380D01*
X117298214Y-80732380D02*
X117774404Y-80732380D01*
X117822023Y-81208571D01*
X117774404Y-81160952D01*
X117679166Y-81113333D01*
X117441071Y-81113333D01*
X117345833Y-81160952D01*
X117298214Y-81208571D01*
X117250595Y-81303809D01*
X117250595Y-81541904D01*
X117298214Y-81637142D01*
X117345833Y-81684761D01*
X117441071Y-81732380D01*
X117679166Y-81732380D01*
X117774404Y-81684761D01*
X117822023Y-81637142D01*
X116964880Y-80732380D02*
X116631547Y-81732380D01*
X116298214Y-80732380D01*
X107126547Y-78906666D02*
X106650357Y-78906666D01*
X107221785Y-79192380D02*
X106888452Y-78192380D01*
X106555119Y-79192380D01*
X106031309Y-78192380D02*
X105936071Y-78192380D01*
X105840833Y-78240000D01*
X105793214Y-78287619D01*
X105745595Y-78382857D01*
X105697976Y-78573333D01*
X105697976Y-78811428D01*
X105745595Y-79001904D01*
X105793214Y-79097142D01*
X105840833Y-79144761D01*
X105936071Y-79192380D01*
X106031309Y-79192380D01*
X106126547Y-79144761D01*
X106174166Y-79097142D01*
X106221785Y-79001904D01*
X106269404Y-78811428D01*
X106269404Y-78573333D01*
X106221785Y-78382857D01*
X106174166Y-78287619D01*
X106126547Y-78240000D01*
X106031309Y-78192380D01*
X107126547Y-96686666D02*
X106650357Y-96686666D01*
X107221785Y-96972380D02*
X106888452Y-95972380D01*
X106555119Y-96972380D01*
X106317023Y-95972380D02*
X105650357Y-95972380D01*
X106078928Y-96972380D01*
X107126547Y-94146666D02*
X106650357Y-94146666D01*
X107221785Y-94432380D02*
X106888452Y-93432380D01*
X106555119Y-94432380D01*
X105793214Y-93432380D02*
X105983690Y-93432380D01*
X106078928Y-93480000D01*
X106126547Y-93527619D01*
X106221785Y-93670476D01*
X106269404Y-93860952D01*
X106269404Y-94241904D01*
X106221785Y-94337142D01*
X106174166Y-94384761D01*
X106078928Y-94432380D01*
X105888452Y-94432380D01*
X105793214Y-94384761D01*
X105745595Y-94337142D01*
X105697976Y-94241904D01*
X105697976Y-94003809D01*
X105745595Y-93908571D01*
X105793214Y-93860952D01*
X105888452Y-93813333D01*
X106078928Y-93813333D01*
X106174166Y-93860952D01*
X106221785Y-93908571D01*
X106269404Y-94003809D01*
X107126547Y-91606666D02*
X106650357Y-91606666D01*
X107221785Y-91892380D02*
X106888452Y-90892380D01*
X106555119Y-91892380D01*
X105745595Y-90892380D02*
X106221785Y-90892380D01*
X106269404Y-91368571D01*
X106221785Y-91320952D01*
X106126547Y-91273333D01*
X105888452Y-91273333D01*
X105793214Y-91320952D01*
X105745595Y-91368571D01*
X105697976Y-91463809D01*
X105697976Y-91701904D01*
X105745595Y-91797142D01*
X105793214Y-91844761D01*
X105888452Y-91892380D01*
X106126547Y-91892380D01*
X106221785Y-91844761D01*
X106269404Y-91797142D01*
X107126547Y-89066666D02*
X106650357Y-89066666D01*
X107221785Y-89352380D02*
X106888452Y-88352380D01*
X106555119Y-89352380D01*
X105793214Y-88685714D02*
X105793214Y-89352380D01*
X106031309Y-88304761D02*
X106269404Y-89019047D01*
X105650357Y-89019047D01*
X107126547Y-86526666D02*
X106650357Y-86526666D01*
X107221785Y-86812380D02*
X106888452Y-85812380D01*
X106555119Y-86812380D01*
X106317023Y-85812380D02*
X105697976Y-85812380D01*
X106031309Y-86193333D01*
X105888452Y-86193333D01*
X105793214Y-86240952D01*
X105745595Y-86288571D01*
X105697976Y-86383809D01*
X105697976Y-86621904D01*
X105745595Y-86717142D01*
X105793214Y-86764761D01*
X105888452Y-86812380D01*
X106174166Y-86812380D01*
X106269404Y-86764761D01*
X106317023Y-86717142D01*
X107126547Y-83986666D02*
X106650357Y-83986666D01*
X107221785Y-84272380D02*
X106888452Y-83272380D01*
X106555119Y-84272380D01*
X106269404Y-83367619D02*
X106221785Y-83320000D01*
X106126547Y-83272380D01*
X105888452Y-83272380D01*
X105793214Y-83320000D01*
X105745595Y-83367619D01*
X105697976Y-83462857D01*
X105697976Y-83558095D01*
X105745595Y-83700952D01*
X106317023Y-84272380D01*
X105697976Y-84272380D01*
X107126547Y-81446666D02*
X106650357Y-81446666D01*
X107221785Y-81732380D02*
X106888452Y-80732380D01*
X106555119Y-81732380D01*
X105697976Y-81732380D02*
X106269404Y-81732380D01*
X105983690Y-81732380D02*
X105983690Y-80732380D01*
X106078928Y-80875238D01*
X106174166Y-80970476D01*
X106269404Y-81018095D01*
D12*
X120710000Y-97850000D02*
X118050000Y-97850000D01*
X120710000Y-82550000D02*
X120710000Y-97850000D01*
X118050000Y-82550000D02*
X118050000Y-97850000D01*
X120710000Y-82550000D02*
X118050000Y-82550000D01*
X120710000Y-81280000D02*
X120710000Y-79950000D01*
X120710000Y-79950000D02*
X119380000Y-79950000D01*
X105470000Y-97850000D02*
X102810000Y-97850000D01*
X105470000Y-80010000D02*
X105470000Y-97850000D01*
X102810000Y-80010000D02*
X102810000Y-97850000D01*
X105470000Y-80010000D02*
X102810000Y-80010000D01*
X105470000Y-78740000D02*
X105470000Y-77410000D01*
X105470000Y-77410000D02*
X104140000Y-77410000D01*
%LPC*%
D13*
X119380000Y-96520000D03*
X119380000Y-93980000D03*
X119380000Y-91440000D03*
X119380000Y-88900000D03*
X119380000Y-86360000D03*
X119380000Y-83820000D03*
D14*
X119380000Y-81280000D03*
D13*
X104140000Y-96520000D03*
X104140000Y-93980000D03*
X104140000Y-91440000D03*
X104140000Y-88900000D03*
X104140000Y-86360000D03*
X104140000Y-83820000D03*
X104140000Y-81280000D03*
D14*
X104140000Y-78740000D03*
D15*
X106890000Y-72870000D03*
X114090000Y-72870000D03*
D16*
X108065000Y-75520000D03*
X112915000Y-75520000D03*
M02*
