%FSLAX45Y45*%
G04 Gerber Fmt 4.5, Leading zero omitted, Abs format (unit mm)*
G04 Created by KiCad (PCBNEW (5.1.10)-1) date 2021-11-12 00:24:01*
%MOMM*%
%LPD*%
G01*
G04 APERTURE LIST*
%TA.AperFunction,Profile*%
%ADD10C,0.050000*%
%TD*%
%ADD11C,0.200000*%
%ADD12C,0.300000*%
G04 APERTURE END LIST*
D10*
X10287000Y-7239000D02*
G75*
G02*
X10414000Y-7112000I127000J0D01*
G01*
X11938000Y-7112000D02*
G75*
G02*
X12065000Y-7239000I0J-127000D01*
G01*
X12065000Y-9652000D02*
G75*
G02*
X11938000Y-9779000I-127000J0D01*
G01*
X10414000Y-9779000D02*
G75*
G02*
X10287000Y-9652000I0J127000D01*
G01*
X10287000Y-7239000D02*
X10287000Y-9652000D01*
X11938000Y-7112000D02*
X10414000Y-7112000D01*
X12065000Y-9652000D02*
X12065000Y-7239000D01*
X10414000Y-9779000D02*
X11938000Y-9779000D01*
D11*
X10480200Y-7381400D02*
X10500200Y-7401400D01*
X10500200Y-7381400D02*
X10480200Y-7401400D01*
X10620000Y-8720000D02*
X10640000Y-8740000D01*
X10640000Y-8720000D02*
X10620000Y-8740000D01*
X10620000Y-9050000D02*
X10640000Y-9070000D01*
X10640000Y-9050000D02*
X10620000Y-9070000D01*
X10632600Y-8854600D02*
X10652600Y-8874600D01*
X10652600Y-8854600D02*
X10632600Y-8874600D01*
X10683400Y-8041800D02*
X10703400Y-8061800D01*
X10703400Y-8041800D02*
X10683400Y-8061800D01*
X10683400Y-9515000D02*
X10703400Y-9535000D01*
X10703400Y-9515000D02*
X10683400Y-9535000D01*
X10685000Y-8720000D02*
X10705000Y-8740000D01*
X10705000Y-8720000D02*
X10685000Y-8740000D01*
X10685000Y-9050000D02*
X10705000Y-9070000D01*
X10705000Y-9050000D02*
X10685000Y-9070000D01*
X10750000Y-8720000D02*
X10770000Y-8740000D01*
X10770000Y-8720000D02*
X10750000Y-8740000D01*
X10750000Y-9050000D02*
X10770000Y-9070000D01*
X10770000Y-9050000D02*
X10750000Y-9070000D01*
X10810400Y-8041800D02*
X10830400Y-8061800D01*
X10830400Y-8041800D02*
X10810400Y-8061800D01*
X10815000Y-8720000D02*
X10835000Y-8740000D01*
X10835000Y-8720000D02*
X10815000Y-8740000D01*
X10815000Y-9050000D02*
X10835000Y-9070000D01*
X10835000Y-9050000D02*
X10815000Y-9070000D01*
X10835800Y-8905400D02*
X10855800Y-8925400D01*
X10855800Y-8905400D02*
X10835800Y-8925400D01*
X10861200Y-7381400D02*
X10881200Y-7401400D01*
X10881200Y-7381400D02*
X10861200Y-7401400D01*
X10861200Y-7432200D02*
X10881200Y-7452200D01*
X10881200Y-7432200D02*
X10861200Y-7452200D01*
X10861200Y-7648100D02*
X10881200Y-7668100D01*
X10881200Y-7648100D02*
X10861200Y-7668100D01*
X10912000Y-7381400D02*
X10932000Y-7401400D01*
X10932000Y-7381400D02*
X10912000Y-7401400D01*
X10912000Y-7432200D02*
X10932000Y-7452200D01*
X10932000Y-7432200D02*
X10912000Y-7452200D01*
X10912000Y-7648100D02*
X10932000Y-7668100D01*
X10932000Y-7648100D02*
X10912000Y-7668100D01*
X10924700Y-8422800D02*
X10944700Y-8442800D01*
X10944700Y-8422800D02*
X10924700Y-8442800D01*
X10924700Y-8473600D02*
X10944700Y-8493600D01*
X10944700Y-8473600D02*
X10924700Y-8493600D01*
X10937400Y-8803800D02*
X10957400Y-8823800D01*
X10957400Y-8803800D02*
X10937400Y-8823800D01*
X10945000Y-8720000D02*
X10965000Y-8740000D01*
X10965000Y-8720000D02*
X10945000Y-8740000D01*
X10950100Y-9667400D02*
X10970100Y-9687400D01*
X10970100Y-9667400D02*
X10950100Y-9687400D01*
X10962800Y-7381400D02*
X10982800Y-7401400D01*
X10982800Y-7381400D02*
X10962800Y-7401400D01*
X10962800Y-7432200D02*
X10982800Y-7452200D01*
X10982800Y-7432200D02*
X10962800Y-7452200D01*
X10962800Y-7648100D02*
X10982800Y-7668100D01*
X10982800Y-7648100D02*
X10962800Y-7668100D01*
X10975500Y-8422800D02*
X10995500Y-8442800D01*
X10995500Y-8422800D02*
X10975500Y-8442800D01*
X10975500Y-8473600D02*
X10995500Y-8493600D01*
X10995500Y-8473600D02*
X10975500Y-8493600D01*
X11058954Y-8798354D02*
X11078954Y-8818354D01*
X11078954Y-8798354D02*
X11058954Y-8818354D01*
X11075000Y-9050000D02*
X11095000Y-9070000D01*
X11095000Y-9050000D02*
X11075000Y-9070000D01*
X11089800Y-9642000D02*
X11109800Y-9662000D01*
X11109800Y-9642000D02*
X11089800Y-9662000D01*
X11115200Y-9413400D02*
X11135200Y-9433400D01*
X11135200Y-9413400D02*
X11115200Y-9433400D01*
X11140000Y-9050000D02*
X11160000Y-9070000D01*
X11160000Y-9050000D02*
X11140000Y-9070000D01*
X11191400Y-8041800D02*
X11211400Y-8061800D01*
X11211400Y-8041800D02*
X11191400Y-8061800D01*
X11204500Y-8720000D02*
X11224500Y-8740000D01*
X11224500Y-8720000D02*
X11204500Y-8740000D01*
X11267600Y-8626000D02*
X11287600Y-8646000D01*
X11287600Y-8626000D02*
X11267600Y-8646000D01*
X11420000Y-8105300D02*
X11440000Y-8125300D01*
X11440000Y-8105300D02*
X11420000Y-8125300D01*
X11420000Y-9438800D02*
X11440000Y-9458800D01*
X11440000Y-9438800D02*
X11420000Y-9458800D01*
X11496200Y-8880000D02*
X11516200Y-8900000D01*
X11516200Y-8880000D02*
X11496200Y-8900000D01*
X11559700Y-8435500D02*
X11579700Y-8455500D01*
X11579700Y-8435500D02*
X11559700Y-8455500D01*
X11623200Y-9349900D02*
X11643200Y-9369900D01*
X11643200Y-9349900D02*
X11623200Y-9369900D01*
X11623200Y-9400700D02*
X11643200Y-9420700D01*
X11643200Y-9400700D02*
X11623200Y-9420700D01*
X11674000Y-7381400D02*
X11694000Y-7401400D01*
X11694000Y-7381400D02*
X11674000Y-7401400D01*
X11674000Y-9349900D02*
X11694000Y-9369900D01*
X11694000Y-9349900D02*
X11674000Y-9369900D01*
X11674000Y-9400700D02*
X11694000Y-9420700D01*
X11694000Y-9400700D02*
X11674000Y-9420700D01*
X11801000Y-7660800D02*
X11821000Y-7680800D01*
X11821000Y-7660800D02*
X11801000Y-7680800D01*
X10714000Y-7287000D02*
G75*
G03*
X10714000Y-7287000I-25000J0D01*
G01*
X10674000Y-7247000D02*
X10674000Y-7327000D01*
X10704000Y-7247000D02*
X10704000Y-7327000D01*
X10674000Y-7327000D02*
G75*
G03*
X10704000Y-7327000I15000J0D01*
G01*
X10704000Y-7247000D02*
G75*
G03*
X10674000Y-7247000I-15000J0D01*
G01*
X11434000Y-7287000D02*
G75*
G03*
X11434000Y-7287000I-25000J0D01*
G01*
X11394000Y-7247000D02*
X11394000Y-7327000D01*
X11424000Y-7247000D02*
X11424000Y-7327000D01*
X11394000Y-7327000D02*
G75*
G03*
X11424000Y-7327000I15000J0D01*
G01*
X11424000Y-7247000D02*
G75*
G03*
X11394000Y-7247000I-15000J0D01*
G01*
X10806500Y-7517000D02*
X10806500Y-7587000D01*
X10771500Y-7552000D02*
X10841500Y-7552000D01*
X11291500Y-7517000D02*
X11291500Y-7587000D01*
X11256500Y-7552000D02*
X11326500Y-7552000D01*
X10449356Y-7909356D02*
X10449356Y-7838644D01*
X10378644Y-7838644D01*
X10378644Y-7909356D01*
X10449356Y-7909356D01*
X10449356Y-8163356D02*
X10449356Y-8092644D01*
X10378644Y-8092644D01*
X10378644Y-8163356D01*
X10449356Y-8163356D01*
X10449356Y-8417356D02*
X10449356Y-8346644D01*
X10378644Y-8346644D01*
X10378644Y-8417356D01*
X10449356Y-8417356D01*
X10449356Y-8671356D02*
X10449356Y-8600644D01*
X10378644Y-8600644D01*
X10378644Y-8671356D01*
X10449356Y-8671356D01*
X10449356Y-8925356D02*
X10449356Y-8854644D01*
X10378644Y-8854644D01*
X10378644Y-8925356D01*
X10449356Y-8925356D01*
X10449356Y-9179356D02*
X10449356Y-9108644D01*
X10378644Y-9108644D01*
X10378644Y-9179356D01*
X10449356Y-9179356D01*
X10449356Y-9433356D02*
X10449356Y-9362644D01*
X10378644Y-9362644D01*
X10378644Y-9433356D01*
X10449356Y-9433356D01*
X10449356Y-9687356D02*
X10449356Y-9616644D01*
X10378644Y-9616644D01*
X10378644Y-9687356D01*
X10449356Y-9687356D01*
X11973356Y-8163356D02*
X11973356Y-8092644D01*
X11902644Y-8092644D01*
X11902644Y-8163356D01*
X11973356Y-8163356D01*
X11973356Y-8417356D02*
X11973356Y-8346644D01*
X11902644Y-8346644D01*
X11902644Y-8417356D01*
X11973356Y-8417356D01*
X11973356Y-8671356D02*
X11973356Y-8600644D01*
X11902644Y-8600644D01*
X11902644Y-8671356D01*
X11973356Y-8671356D01*
X11973356Y-8925356D02*
X11973356Y-8854644D01*
X11902644Y-8854644D01*
X11902644Y-8925356D01*
X11973356Y-8925356D01*
X11973356Y-9179356D02*
X11973356Y-9108644D01*
X11902644Y-9108644D01*
X11902644Y-9179356D01*
X11973356Y-9179356D01*
X11973356Y-9433356D02*
X11973356Y-9362644D01*
X11902644Y-9362644D01*
X11902644Y-9433356D01*
X11973356Y-9433356D01*
X11973356Y-9687356D02*
X11973356Y-9616644D01*
X11902644Y-9616644D01*
X11902644Y-9687356D01*
X11973356Y-9687356D01*
D12*
X10570928Y-10247214D02*
X10570928Y-9947214D01*
X10642357Y-9947214D01*
X10685214Y-9961500D01*
X10713786Y-9990072D01*
X10728071Y-10018643D01*
X10742357Y-10075786D01*
X10742357Y-10118643D01*
X10728071Y-10175786D01*
X10713786Y-10204357D01*
X10685214Y-10232929D01*
X10642357Y-10247214D01*
X10570928Y-10247214D01*
X10870928Y-10247214D02*
X10870928Y-10047214D01*
X10870928Y-10104357D02*
X10885214Y-10075786D01*
X10899500Y-10061500D01*
X10928071Y-10047214D01*
X10956643Y-10047214D01*
X11056643Y-10247214D02*
X11056643Y-10047214D01*
X11056643Y-9947214D02*
X11042357Y-9961500D01*
X11056643Y-9975786D01*
X11070928Y-9961500D01*
X11056643Y-9947214D01*
X11056643Y-9975786D01*
X11242357Y-10247214D02*
X11213786Y-10232929D01*
X11199500Y-10204357D01*
X11199500Y-9947214D01*
X11399500Y-10247214D02*
X11370928Y-10232929D01*
X11356643Y-10204357D01*
X11356643Y-9947214D01*
X11742357Y-10247214D02*
X11742357Y-9947214D01*
X11842357Y-10161500D01*
X11942357Y-9947214D01*
X11942357Y-10247214D01*
X12213786Y-10247214D02*
X12213786Y-10090072D01*
X12199500Y-10061500D01*
X12170928Y-10047214D01*
X12113786Y-10047214D01*
X12085214Y-10061500D01*
X12213786Y-10232929D02*
X12185214Y-10247214D01*
X12113786Y-10247214D01*
X12085214Y-10232929D01*
X12070928Y-10204357D01*
X12070928Y-10175786D01*
X12085214Y-10147214D01*
X12113786Y-10132929D01*
X12185214Y-10132929D01*
X12213786Y-10118643D01*
X12356643Y-10047214D02*
X12356643Y-10347214D01*
X12356643Y-10061500D02*
X12385214Y-10047214D01*
X12442357Y-10047214D01*
X12470928Y-10061500D01*
X12485214Y-10075786D01*
X12499500Y-10104357D01*
X12499500Y-10190072D01*
X12485214Y-10218643D01*
X12470928Y-10232929D01*
X12442357Y-10247214D01*
X12385214Y-10247214D01*
X12356643Y-10232929D01*
X12628071Y-10218643D02*
X12642357Y-10232929D01*
X12628071Y-10247214D01*
X12613786Y-10232929D01*
X12628071Y-10218643D01*
X12628071Y-10247214D01*
X12628071Y-10061500D02*
X12642357Y-10075786D01*
X12628071Y-10090072D01*
X12613786Y-10075786D01*
X12628071Y-10061500D01*
X12628071Y-10090072D01*
X10264500Y-10731500D02*
X10284500Y-10751500D01*
X10284500Y-10731500D02*
X10264500Y-10751500D01*
X10628071Y-10577214D02*
X10656643Y-10577214D01*
X10685214Y-10591500D01*
X10699500Y-10605786D01*
X10713786Y-10634357D01*
X10728071Y-10691500D01*
X10728071Y-10762929D01*
X10713786Y-10820072D01*
X10699500Y-10848643D01*
X10685214Y-10862929D01*
X10656643Y-10877214D01*
X10628071Y-10877214D01*
X10599500Y-10862929D01*
X10585214Y-10848643D01*
X10570928Y-10820072D01*
X10556643Y-10762929D01*
X10556643Y-10691500D01*
X10570928Y-10634357D01*
X10585214Y-10605786D01*
X10599500Y-10591500D01*
X10628071Y-10577214D01*
X10856643Y-10848643D02*
X10870928Y-10862929D01*
X10856643Y-10877214D01*
X10842357Y-10862929D01*
X10856643Y-10848643D01*
X10856643Y-10877214D01*
X10985214Y-10605786D02*
X10999500Y-10591500D01*
X11028071Y-10577214D01*
X11099500Y-10577214D01*
X11128071Y-10591500D01*
X11142357Y-10605786D01*
X11156643Y-10634357D01*
X11156643Y-10662929D01*
X11142357Y-10705786D01*
X10970928Y-10877214D01*
X11156643Y-10877214D01*
X11342357Y-10577214D02*
X11370928Y-10577214D01*
X11399500Y-10591500D01*
X11413786Y-10605786D01*
X11428071Y-10634357D01*
X11442357Y-10691500D01*
X11442357Y-10762929D01*
X11428071Y-10820072D01*
X11413786Y-10848643D01*
X11399500Y-10862929D01*
X11370928Y-10877214D01*
X11342357Y-10877214D01*
X11313786Y-10862929D01*
X11299500Y-10848643D01*
X11285214Y-10820072D01*
X11270928Y-10762929D01*
X11270928Y-10691500D01*
X11285214Y-10634357D01*
X11299500Y-10605786D01*
X11313786Y-10591500D01*
X11342357Y-10577214D01*
X11628071Y-10577214D02*
X11656643Y-10577214D01*
X11685214Y-10591500D01*
X11699500Y-10605786D01*
X11713786Y-10634357D01*
X11728071Y-10691500D01*
X11728071Y-10762929D01*
X11713786Y-10820072D01*
X11699500Y-10848643D01*
X11685214Y-10862929D01*
X11656643Y-10877214D01*
X11628071Y-10877214D01*
X11599500Y-10862929D01*
X11585214Y-10848643D01*
X11570928Y-10820072D01*
X11556643Y-10762929D01*
X11556643Y-10691500D01*
X11570928Y-10634357D01*
X11585214Y-10605786D01*
X11599500Y-10591500D01*
X11628071Y-10577214D01*
X11856643Y-10877214D02*
X11856643Y-10677214D01*
X11856643Y-10705786D02*
X11870928Y-10691500D01*
X11899500Y-10677214D01*
X11942357Y-10677214D01*
X11970928Y-10691500D01*
X11985214Y-10720072D01*
X11985214Y-10877214D01*
X11985214Y-10720072D02*
X11999500Y-10691500D01*
X12028071Y-10677214D01*
X12070928Y-10677214D01*
X12099500Y-10691500D01*
X12113786Y-10720072D01*
X12113786Y-10877214D01*
X12256643Y-10877214D02*
X12256643Y-10677214D01*
X12256643Y-10705786D02*
X12270928Y-10691500D01*
X12299500Y-10677214D01*
X12342357Y-10677214D01*
X12370928Y-10691500D01*
X12385214Y-10720072D01*
X12385214Y-10877214D01*
X12385214Y-10720072D02*
X12399500Y-10691500D01*
X12428071Y-10677214D01*
X12470928Y-10677214D01*
X12499500Y-10691500D01*
X12513786Y-10720072D01*
X12513786Y-10877214D01*
X13099500Y-10562929D02*
X12842357Y-10948643D01*
X13485214Y-10577214D02*
X13513786Y-10577214D01*
X13542357Y-10591500D01*
X13556643Y-10605786D01*
X13570928Y-10634357D01*
X13585214Y-10691500D01*
X13585214Y-10762929D01*
X13570928Y-10820072D01*
X13556643Y-10848643D01*
X13542357Y-10862929D01*
X13513786Y-10877214D01*
X13485214Y-10877214D01*
X13456643Y-10862929D01*
X13442357Y-10848643D01*
X13428071Y-10820072D01*
X13413786Y-10762929D01*
X13413786Y-10691500D01*
X13428071Y-10634357D01*
X13442357Y-10605786D01*
X13456643Y-10591500D01*
X13485214Y-10577214D01*
X13713786Y-10848643D02*
X13728071Y-10862929D01*
X13713786Y-10877214D01*
X13699500Y-10862929D01*
X13713786Y-10848643D01*
X13713786Y-10877214D01*
X13913786Y-10577214D02*
X13942357Y-10577214D01*
X13970928Y-10591500D01*
X13985214Y-10605786D01*
X13999500Y-10634357D01*
X14013786Y-10691500D01*
X14013786Y-10762929D01*
X13999500Y-10820072D01*
X13985214Y-10848643D01*
X13970928Y-10862929D01*
X13942357Y-10877214D01*
X13913786Y-10877214D01*
X13885214Y-10862929D01*
X13870928Y-10848643D01*
X13856643Y-10820072D01*
X13842357Y-10762929D01*
X13842357Y-10691500D01*
X13856643Y-10634357D01*
X13870928Y-10605786D01*
X13885214Y-10591500D01*
X13913786Y-10577214D01*
X14199500Y-10577214D02*
X14228071Y-10577214D01*
X14256643Y-10591500D01*
X14270928Y-10605786D01*
X14285214Y-10634357D01*
X14299500Y-10691500D01*
X14299500Y-10762929D01*
X14285214Y-10820072D01*
X14270928Y-10848643D01*
X14256643Y-10862929D01*
X14228071Y-10877214D01*
X14199500Y-10877214D01*
X14170928Y-10862929D01*
X14156643Y-10848643D01*
X14142357Y-10820072D01*
X14128071Y-10762929D01*
X14128071Y-10691500D01*
X14142357Y-10634357D01*
X14156643Y-10605786D01*
X14170928Y-10591500D01*
X14199500Y-10577214D01*
X14399500Y-10577214D02*
X14599500Y-10577214D01*
X14470928Y-10877214D01*
X14728071Y-10877214D02*
X14785214Y-10877214D01*
X14813786Y-10862929D01*
X14828071Y-10848643D01*
X14856643Y-10805786D01*
X14870928Y-10748643D01*
X14870928Y-10634357D01*
X14856643Y-10605786D01*
X14842357Y-10591500D01*
X14813786Y-10577214D01*
X14756643Y-10577214D01*
X14728071Y-10591500D01*
X14713786Y-10605786D01*
X14699500Y-10634357D01*
X14699500Y-10705786D01*
X14713786Y-10734357D01*
X14728071Y-10748643D01*
X14756643Y-10762929D01*
X14813786Y-10762929D01*
X14842357Y-10748643D01*
X14856643Y-10734357D01*
X14870928Y-10705786D01*
X14985214Y-10577214D02*
X14985214Y-10634357D01*
X15099500Y-10577214D02*
X15099500Y-10634357D01*
X15542357Y-10991500D02*
X15528071Y-10977214D01*
X15499500Y-10934357D01*
X15485214Y-10905786D01*
X15470928Y-10862929D01*
X15456643Y-10791500D01*
X15456643Y-10734357D01*
X15470928Y-10662929D01*
X15485214Y-10620072D01*
X15499500Y-10591500D01*
X15528071Y-10548643D01*
X15542357Y-10534357D01*
X15785214Y-10677214D02*
X15785214Y-10877214D01*
X15713786Y-10562929D02*
X15642357Y-10777214D01*
X15828071Y-10777214D01*
X15985214Y-10705786D02*
X15956643Y-10691500D01*
X15942357Y-10677214D01*
X15928071Y-10648643D01*
X15928071Y-10634357D01*
X15942357Y-10605786D01*
X15956643Y-10591500D01*
X15985214Y-10577214D01*
X16042357Y-10577214D01*
X16070928Y-10591500D01*
X16085214Y-10605786D01*
X16099500Y-10634357D01*
X16099500Y-10648643D01*
X16085214Y-10677214D01*
X16070928Y-10691500D01*
X16042357Y-10705786D01*
X15985214Y-10705786D01*
X15956643Y-10720072D01*
X15942357Y-10734357D01*
X15928071Y-10762929D01*
X15928071Y-10820072D01*
X15942357Y-10848643D01*
X15956643Y-10862929D01*
X15985214Y-10877214D01*
X16042357Y-10877214D01*
X16070928Y-10862929D01*
X16085214Y-10848643D01*
X16099500Y-10820072D01*
X16099500Y-10762929D01*
X16085214Y-10734357D01*
X16070928Y-10720072D01*
X16042357Y-10705786D01*
X16456643Y-10877214D02*
X16456643Y-10577214D01*
X16585214Y-10877214D02*
X16585214Y-10720072D01*
X16570928Y-10691500D01*
X16542357Y-10677214D01*
X16499500Y-10677214D01*
X16470928Y-10691500D01*
X16456643Y-10705786D01*
X16770928Y-10877214D02*
X16742357Y-10862929D01*
X16728071Y-10848643D01*
X16713786Y-10820072D01*
X16713786Y-10734357D01*
X16728071Y-10705786D01*
X16742357Y-10691500D01*
X16770928Y-10677214D01*
X16813786Y-10677214D01*
X16842357Y-10691500D01*
X16856643Y-10705786D01*
X16870928Y-10734357D01*
X16870928Y-10820072D01*
X16856643Y-10848643D01*
X16842357Y-10862929D01*
X16813786Y-10877214D01*
X16770928Y-10877214D01*
X17042357Y-10877214D02*
X17013786Y-10862929D01*
X16999500Y-10834357D01*
X16999500Y-10577214D01*
X17270928Y-10862929D02*
X17242357Y-10877214D01*
X17185214Y-10877214D01*
X17156643Y-10862929D01*
X17142357Y-10834357D01*
X17142357Y-10720072D01*
X17156643Y-10691500D01*
X17185214Y-10677214D01*
X17242357Y-10677214D01*
X17270928Y-10691500D01*
X17285214Y-10720072D01*
X17285214Y-10748643D01*
X17142357Y-10777214D01*
X17399500Y-10862929D02*
X17428071Y-10877214D01*
X17485214Y-10877214D01*
X17513786Y-10862929D01*
X17528071Y-10834357D01*
X17528071Y-10820072D01*
X17513786Y-10791500D01*
X17485214Y-10777214D01*
X17442357Y-10777214D01*
X17413786Y-10762929D01*
X17399500Y-10734357D01*
X17399500Y-10720072D01*
X17413786Y-10691500D01*
X17442357Y-10677214D01*
X17485214Y-10677214D01*
X17513786Y-10691500D01*
X17628071Y-10991500D02*
X17642357Y-10977214D01*
X17670928Y-10934357D01*
X17685214Y-10905786D01*
X17699500Y-10862929D01*
X17713786Y-10791500D01*
X17713786Y-10734357D01*
X17699500Y-10662929D01*
X17685214Y-10620072D01*
X17670928Y-10591500D01*
X17642357Y-10548643D01*
X17628071Y-10534357D01*
X10284500Y-11137500D02*
G75*
G03*
X10284500Y-11137500I-25000J0D01*
G01*
X10628071Y-10973214D02*
X10656643Y-10973214D01*
X10685214Y-10987500D01*
X10699500Y-11001786D01*
X10713786Y-11030357D01*
X10728071Y-11087500D01*
X10728071Y-11158929D01*
X10713786Y-11216071D01*
X10699500Y-11244643D01*
X10685214Y-11258929D01*
X10656643Y-11273214D01*
X10628071Y-11273214D01*
X10599500Y-11258929D01*
X10585214Y-11244643D01*
X10570928Y-11216071D01*
X10556643Y-11158929D01*
X10556643Y-11087500D01*
X10570928Y-11030357D01*
X10585214Y-11001786D01*
X10599500Y-10987500D01*
X10628071Y-10973214D01*
X10856643Y-11244643D02*
X10870928Y-11258929D01*
X10856643Y-11273214D01*
X10842357Y-11258929D01*
X10856643Y-11244643D01*
X10856643Y-11273214D01*
X11142357Y-10973214D02*
X10999500Y-10973214D01*
X10985214Y-11116072D01*
X10999500Y-11101786D01*
X11028071Y-11087500D01*
X11099500Y-11087500D01*
X11128071Y-11101786D01*
X11142357Y-11116072D01*
X11156643Y-11144643D01*
X11156643Y-11216071D01*
X11142357Y-11244643D01*
X11128071Y-11258929D01*
X11099500Y-11273214D01*
X11028071Y-11273214D01*
X10999500Y-11258929D01*
X10985214Y-11244643D01*
X11342357Y-10973214D02*
X11370928Y-10973214D01*
X11399500Y-10987500D01*
X11413786Y-11001786D01*
X11428071Y-11030357D01*
X11442357Y-11087500D01*
X11442357Y-11158929D01*
X11428071Y-11216071D01*
X11413786Y-11244643D01*
X11399500Y-11258929D01*
X11370928Y-11273214D01*
X11342357Y-11273214D01*
X11313786Y-11258929D01*
X11299500Y-11244643D01*
X11285214Y-11216071D01*
X11270928Y-11158929D01*
X11270928Y-11087500D01*
X11285214Y-11030357D01*
X11299500Y-11001786D01*
X11313786Y-10987500D01*
X11342357Y-10973214D01*
X11628071Y-10973214D02*
X11656643Y-10973214D01*
X11685214Y-10987500D01*
X11699500Y-11001786D01*
X11713786Y-11030357D01*
X11728071Y-11087500D01*
X11728071Y-11158929D01*
X11713786Y-11216071D01*
X11699500Y-11244643D01*
X11685214Y-11258929D01*
X11656643Y-11273214D01*
X11628071Y-11273214D01*
X11599500Y-11258929D01*
X11585214Y-11244643D01*
X11570928Y-11216071D01*
X11556643Y-11158929D01*
X11556643Y-11087500D01*
X11570928Y-11030357D01*
X11585214Y-11001786D01*
X11599500Y-10987500D01*
X11628071Y-10973214D01*
X11856643Y-11273214D02*
X11856643Y-11073214D01*
X11856643Y-11101786D02*
X11870928Y-11087500D01*
X11899500Y-11073214D01*
X11942357Y-11073214D01*
X11970928Y-11087500D01*
X11985214Y-11116072D01*
X11985214Y-11273214D01*
X11985214Y-11116072D02*
X11999500Y-11087500D01*
X12028071Y-11073214D01*
X12070928Y-11073214D01*
X12099500Y-11087500D01*
X12113786Y-11116072D01*
X12113786Y-11273214D01*
X12256643Y-11273214D02*
X12256643Y-11073214D01*
X12256643Y-11101786D02*
X12270928Y-11087500D01*
X12299500Y-11073214D01*
X12342357Y-11073214D01*
X12370928Y-11087500D01*
X12385214Y-11116072D01*
X12385214Y-11273214D01*
X12385214Y-11116072D02*
X12399500Y-11087500D01*
X12428071Y-11073214D01*
X12470928Y-11073214D01*
X12499500Y-11087500D01*
X12513786Y-11116072D01*
X12513786Y-11273214D01*
X13099500Y-10958929D02*
X12842357Y-11344643D01*
X13485214Y-10973214D02*
X13513786Y-10973214D01*
X13542357Y-10987500D01*
X13556643Y-11001786D01*
X13570928Y-11030357D01*
X13585214Y-11087500D01*
X13585214Y-11158929D01*
X13570928Y-11216071D01*
X13556643Y-11244643D01*
X13542357Y-11258929D01*
X13513786Y-11273214D01*
X13485214Y-11273214D01*
X13456643Y-11258929D01*
X13442357Y-11244643D01*
X13428071Y-11216071D01*
X13413786Y-11158929D01*
X13413786Y-11087500D01*
X13428071Y-11030357D01*
X13442357Y-11001786D01*
X13456643Y-10987500D01*
X13485214Y-10973214D01*
X13713786Y-11244643D02*
X13728071Y-11258929D01*
X13713786Y-11273214D01*
X13699500Y-11258929D01*
X13713786Y-11244643D01*
X13713786Y-11273214D01*
X13913786Y-10973214D02*
X13942357Y-10973214D01*
X13970928Y-10987500D01*
X13985214Y-11001786D01*
X13999500Y-11030357D01*
X14013786Y-11087500D01*
X14013786Y-11158929D01*
X13999500Y-11216071D01*
X13985214Y-11244643D01*
X13970928Y-11258929D01*
X13942357Y-11273214D01*
X13913786Y-11273214D01*
X13885214Y-11258929D01*
X13870928Y-11244643D01*
X13856643Y-11216071D01*
X13842357Y-11158929D01*
X13842357Y-11087500D01*
X13856643Y-11030357D01*
X13870928Y-11001786D01*
X13885214Y-10987500D01*
X13913786Y-10973214D01*
X14299500Y-11273214D02*
X14128071Y-11273214D01*
X14213786Y-11273214D02*
X14213786Y-10973214D01*
X14185214Y-11016072D01*
X14156643Y-11044643D01*
X14128071Y-11058929D01*
X14442357Y-11273214D02*
X14499500Y-11273214D01*
X14528071Y-11258929D01*
X14542357Y-11244643D01*
X14570928Y-11201786D01*
X14585214Y-11144643D01*
X14585214Y-11030357D01*
X14570928Y-11001786D01*
X14556643Y-10987500D01*
X14528071Y-10973214D01*
X14470928Y-10973214D01*
X14442357Y-10987500D01*
X14428071Y-11001786D01*
X14413786Y-11030357D01*
X14413786Y-11101786D01*
X14428071Y-11130357D01*
X14442357Y-11144643D01*
X14470928Y-11158929D01*
X14528071Y-11158929D01*
X14556643Y-11144643D01*
X14570928Y-11130357D01*
X14585214Y-11101786D01*
X14685214Y-10973214D02*
X14885214Y-10973214D01*
X14756643Y-11273214D01*
X14985214Y-10973214D02*
X14985214Y-11030357D01*
X15099500Y-10973214D02*
X15099500Y-11030357D01*
X15542357Y-11387500D02*
X15528071Y-11373214D01*
X15499500Y-11330357D01*
X15485214Y-11301786D01*
X15470928Y-11258929D01*
X15456643Y-11187500D01*
X15456643Y-11130357D01*
X15470928Y-11058929D01*
X15485214Y-11016072D01*
X15499500Y-10987500D01*
X15528071Y-10944643D01*
X15542357Y-10930357D01*
X15713786Y-10973214D02*
X15742357Y-10973214D01*
X15770928Y-10987500D01*
X15785214Y-11001786D01*
X15799500Y-11030357D01*
X15813786Y-11087500D01*
X15813786Y-11158929D01*
X15799500Y-11216071D01*
X15785214Y-11244643D01*
X15770928Y-11258929D01*
X15742357Y-11273214D01*
X15713786Y-11273214D01*
X15685214Y-11258929D01*
X15670928Y-11244643D01*
X15656643Y-11216071D01*
X15642357Y-11158929D01*
X15642357Y-11087500D01*
X15656643Y-11030357D01*
X15670928Y-11001786D01*
X15685214Y-10987500D01*
X15713786Y-10973214D01*
X16170928Y-11273214D02*
X16170928Y-10973214D01*
X16299500Y-11273214D02*
X16299500Y-11116072D01*
X16285214Y-11087500D01*
X16256643Y-11073214D01*
X16213786Y-11073214D01*
X16185214Y-11087500D01*
X16170928Y-11101786D01*
X16485214Y-11273214D02*
X16456643Y-11258929D01*
X16442357Y-11244643D01*
X16428071Y-11216071D01*
X16428071Y-11130357D01*
X16442357Y-11101786D01*
X16456643Y-11087500D01*
X16485214Y-11073214D01*
X16528071Y-11073214D01*
X16556643Y-11087500D01*
X16570928Y-11101786D01*
X16585214Y-11130357D01*
X16585214Y-11216071D01*
X16570928Y-11244643D01*
X16556643Y-11258929D01*
X16528071Y-11273214D01*
X16485214Y-11273214D01*
X16756643Y-11273214D02*
X16728071Y-11258929D01*
X16713786Y-11230357D01*
X16713786Y-10973214D01*
X16985214Y-11258929D02*
X16956643Y-11273214D01*
X16899500Y-11273214D01*
X16870928Y-11258929D01*
X16856643Y-11230357D01*
X16856643Y-11116072D01*
X16870928Y-11087500D01*
X16899500Y-11073214D01*
X16956643Y-11073214D01*
X16985214Y-11087500D01*
X16999500Y-11116072D01*
X16999500Y-11144643D01*
X16856643Y-11173214D01*
X17113786Y-11258929D02*
X17142357Y-11273214D01*
X17199500Y-11273214D01*
X17228071Y-11258929D01*
X17242357Y-11230357D01*
X17242357Y-11216071D01*
X17228071Y-11187500D01*
X17199500Y-11173214D01*
X17156643Y-11173214D01*
X17128071Y-11158929D01*
X17113786Y-11130357D01*
X17113786Y-11116072D01*
X17128071Y-11087500D01*
X17156643Y-11073214D01*
X17199500Y-11073214D01*
X17228071Y-11087500D01*
X17599500Y-11158929D02*
X17828071Y-11158929D01*
X17713786Y-11273214D02*
X17713786Y-11044643D01*
X18185214Y-11001786D02*
X18199500Y-10987500D01*
X18228071Y-10973214D01*
X18299500Y-10973214D01*
X18328071Y-10987500D01*
X18342357Y-11001786D01*
X18356643Y-11030357D01*
X18356643Y-11058929D01*
X18342357Y-11101786D01*
X18170928Y-11273214D01*
X18356643Y-11273214D01*
X18699500Y-11258929D02*
X18728071Y-11273214D01*
X18785214Y-11273214D01*
X18813786Y-11258929D01*
X18828071Y-11230357D01*
X18828071Y-11216071D01*
X18813786Y-11187500D01*
X18785214Y-11173214D01*
X18742357Y-11173214D01*
X18713786Y-11158929D01*
X18699500Y-11130357D01*
X18699500Y-11116072D01*
X18713786Y-11087500D01*
X18742357Y-11073214D01*
X18785214Y-11073214D01*
X18813786Y-11087500D01*
X18999500Y-11273214D02*
X18970928Y-11258929D01*
X18956643Y-11230357D01*
X18956643Y-10973214D01*
X19156643Y-11273214D02*
X19128071Y-11258929D01*
X19113786Y-11244643D01*
X19099500Y-11216071D01*
X19099500Y-11130357D01*
X19113786Y-11101786D01*
X19128071Y-11087500D01*
X19156643Y-11073214D01*
X19199500Y-11073214D01*
X19228071Y-11087500D01*
X19242357Y-11101786D01*
X19256643Y-11130357D01*
X19256643Y-11216071D01*
X19242357Y-11244643D01*
X19228071Y-11258929D01*
X19199500Y-11273214D01*
X19156643Y-11273214D01*
X19342357Y-11073214D02*
X19456643Y-11073214D01*
X19385214Y-10973214D02*
X19385214Y-11230357D01*
X19399500Y-11258929D01*
X19428071Y-11273214D01*
X19456643Y-11273214D01*
X19542357Y-11258929D02*
X19570928Y-11273214D01*
X19628071Y-11273214D01*
X19656643Y-11258929D01*
X19670928Y-11230357D01*
X19670928Y-11216071D01*
X19656643Y-11187500D01*
X19628071Y-11173214D01*
X19585214Y-11173214D01*
X19556643Y-11158929D01*
X19542357Y-11130357D01*
X19542357Y-11116072D01*
X19556643Y-11087500D01*
X19585214Y-11073214D01*
X19628071Y-11073214D01*
X19656643Y-11087500D01*
X19770928Y-11387500D02*
X19785214Y-11373214D01*
X19813786Y-11330357D01*
X19828071Y-11301786D01*
X19842357Y-11258929D01*
X19856643Y-11187500D01*
X19856643Y-11130357D01*
X19842357Y-11058929D01*
X19828071Y-11016072D01*
X19813786Y-10987500D01*
X19785214Y-10944643D01*
X19770928Y-10930357D01*
X10249500Y-11498500D02*
X10249500Y-11568500D01*
X10214500Y-11533500D02*
X10284500Y-11533500D01*
X10628071Y-11369214D02*
X10656643Y-11369214D01*
X10685214Y-11383500D01*
X10699500Y-11397786D01*
X10713786Y-11426357D01*
X10728071Y-11483500D01*
X10728071Y-11554929D01*
X10713786Y-11612071D01*
X10699500Y-11640643D01*
X10685214Y-11654929D01*
X10656643Y-11669214D01*
X10628071Y-11669214D01*
X10599500Y-11654929D01*
X10585214Y-11640643D01*
X10570928Y-11612071D01*
X10556643Y-11554929D01*
X10556643Y-11483500D01*
X10570928Y-11426357D01*
X10585214Y-11397786D01*
X10599500Y-11383500D01*
X10628071Y-11369214D01*
X10856643Y-11640643D02*
X10870928Y-11654929D01*
X10856643Y-11669214D01*
X10842357Y-11654929D01*
X10856643Y-11640643D01*
X10856643Y-11669214D01*
X10970928Y-11369214D02*
X11170928Y-11369214D01*
X11042357Y-11669214D01*
X11342357Y-11369214D02*
X11370928Y-11369214D01*
X11399500Y-11383500D01*
X11413786Y-11397786D01*
X11428071Y-11426357D01*
X11442357Y-11483500D01*
X11442357Y-11554929D01*
X11428071Y-11612071D01*
X11413786Y-11640643D01*
X11399500Y-11654929D01*
X11370928Y-11669214D01*
X11342357Y-11669214D01*
X11313786Y-11654929D01*
X11299500Y-11640643D01*
X11285214Y-11612071D01*
X11270928Y-11554929D01*
X11270928Y-11483500D01*
X11285214Y-11426357D01*
X11299500Y-11397786D01*
X11313786Y-11383500D01*
X11342357Y-11369214D01*
X11628071Y-11369214D02*
X11656643Y-11369214D01*
X11685214Y-11383500D01*
X11699500Y-11397786D01*
X11713786Y-11426357D01*
X11728071Y-11483500D01*
X11728071Y-11554929D01*
X11713786Y-11612071D01*
X11699500Y-11640643D01*
X11685214Y-11654929D01*
X11656643Y-11669214D01*
X11628071Y-11669214D01*
X11599500Y-11654929D01*
X11585214Y-11640643D01*
X11570928Y-11612071D01*
X11556643Y-11554929D01*
X11556643Y-11483500D01*
X11570928Y-11426357D01*
X11585214Y-11397786D01*
X11599500Y-11383500D01*
X11628071Y-11369214D01*
X11856643Y-11669214D02*
X11856643Y-11469214D01*
X11856643Y-11497786D02*
X11870928Y-11483500D01*
X11899500Y-11469214D01*
X11942357Y-11469214D01*
X11970928Y-11483500D01*
X11985214Y-11512071D01*
X11985214Y-11669214D01*
X11985214Y-11512071D02*
X11999500Y-11483500D01*
X12028071Y-11469214D01*
X12070928Y-11469214D01*
X12099500Y-11483500D01*
X12113786Y-11512071D01*
X12113786Y-11669214D01*
X12256643Y-11669214D02*
X12256643Y-11469214D01*
X12256643Y-11497786D02*
X12270928Y-11483500D01*
X12299500Y-11469214D01*
X12342357Y-11469214D01*
X12370928Y-11483500D01*
X12385214Y-11512071D01*
X12385214Y-11669214D01*
X12385214Y-11512071D02*
X12399500Y-11483500D01*
X12428071Y-11469214D01*
X12470928Y-11469214D01*
X12499500Y-11483500D01*
X12513786Y-11512071D01*
X12513786Y-11669214D01*
X13099500Y-11354929D02*
X12842357Y-11740643D01*
X13485214Y-11369214D02*
X13513786Y-11369214D01*
X13542357Y-11383500D01*
X13556643Y-11397786D01*
X13570928Y-11426357D01*
X13585214Y-11483500D01*
X13585214Y-11554929D01*
X13570928Y-11612071D01*
X13556643Y-11640643D01*
X13542357Y-11654929D01*
X13513786Y-11669214D01*
X13485214Y-11669214D01*
X13456643Y-11654929D01*
X13442357Y-11640643D01*
X13428071Y-11612071D01*
X13413786Y-11554929D01*
X13413786Y-11483500D01*
X13428071Y-11426357D01*
X13442357Y-11397786D01*
X13456643Y-11383500D01*
X13485214Y-11369214D01*
X13713786Y-11640643D02*
X13728071Y-11654929D01*
X13713786Y-11669214D01*
X13699500Y-11654929D01*
X13713786Y-11640643D01*
X13713786Y-11669214D01*
X13913786Y-11369214D02*
X13942357Y-11369214D01*
X13970928Y-11383500D01*
X13985214Y-11397786D01*
X13999500Y-11426357D01*
X14013786Y-11483500D01*
X14013786Y-11554929D01*
X13999500Y-11612071D01*
X13985214Y-11640643D01*
X13970928Y-11654929D01*
X13942357Y-11669214D01*
X13913786Y-11669214D01*
X13885214Y-11654929D01*
X13870928Y-11640643D01*
X13856643Y-11612071D01*
X13842357Y-11554929D01*
X13842357Y-11483500D01*
X13856643Y-11426357D01*
X13870928Y-11397786D01*
X13885214Y-11383500D01*
X13913786Y-11369214D01*
X14128071Y-11397786D02*
X14142357Y-11383500D01*
X14170928Y-11369214D01*
X14242357Y-11369214D01*
X14270928Y-11383500D01*
X14285214Y-11397786D01*
X14299500Y-11426357D01*
X14299500Y-11454929D01*
X14285214Y-11497786D01*
X14113786Y-11669214D01*
X14299500Y-11669214D01*
X14399500Y-11369214D02*
X14599500Y-11369214D01*
X14470928Y-11669214D01*
X14842357Y-11369214D02*
X14785214Y-11369214D01*
X14756643Y-11383500D01*
X14742357Y-11397786D01*
X14713786Y-11440643D01*
X14699500Y-11497786D01*
X14699500Y-11612071D01*
X14713786Y-11640643D01*
X14728071Y-11654929D01*
X14756643Y-11669214D01*
X14813786Y-11669214D01*
X14842357Y-11654929D01*
X14856643Y-11640643D01*
X14870928Y-11612071D01*
X14870928Y-11540643D01*
X14856643Y-11512071D01*
X14842357Y-11497786D01*
X14813786Y-11483500D01*
X14756643Y-11483500D01*
X14728071Y-11497786D01*
X14713786Y-11512071D01*
X14699500Y-11540643D01*
X14985214Y-11369214D02*
X14985214Y-11426357D01*
X15099500Y-11369214D02*
X15099500Y-11426357D01*
X15542357Y-11783500D02*
X15528071Y-11769214D01*
X15499500Y-11726357D01*
X15485214Y-11697786D01*
X15470928Y-11654929D01*
X15456643Y-11583500D01*
X15456643Y-11526357D01*
X15470928Y-11454929D01*
X15485214Y-11412071D01*
X15499500Y-11383500D01*
X15528071Y-11340643D01*
X15542357Y-11326357D01*
X15642357Y-11397786D02*
X15656643Y-11383500D01*
X15685214Y-11369214D01*
X15756643Y-11369214D01*
X15785214Y-11383500D01*
X15799500Y-11397786D01*
X15813786Y-11426357D01*
X15813786Y-11454929D01*
X15799500Y-11497786D01*
X15628071Y-11669214D01*
X15813786Y-11669214D01*
X16170928Y-11669214D02*
X16170928Y-11369214D01*
X16299500Y-11669214D02*
X16299500Y-11512071D01*
X16285214Y-11483500D01*
X16256643Y-11469214D01*
X16213786Y-11469214D01*
X16185214Y-11483500D01*
X16170928Y-11497786D01*
X16485214Y-11669214D02*
X16456643Y-11654929D01*
X16442357Y-11640643D01*
X16428071Y-11612071D01*
X16428071Y-11526357D01*
X16442357Y-11497786D01*
X16456643Y-11483500D01*
X16485214Y-11469214D01*
X16528071Y-11469214D01*
X16556643Y-11483500D01*
X16570928Y-11497786D01*
X16585214Y-11526357D01*
X16585214Y-11612071D01*
X16570928Y-11640643D01*
X16556643Y-11654929D01*
X16528071Y-11669214D01*
X16485214Y-11669214D01*
X16756643Y-11669214D02*
X16728071Y-11654929D01*
X16713786Y-11626357D01*
X16713786Y-11369214D01*
X16985214Y-11654929D02*
X16956643Y-11669214D01*
X16899500Y-11669214D01*
X16870928Y-11654929D01*
X16856643Y-11626357D01*
X16856643Y-11512071D01*
X16870928Y-11483500D01*
X16899500Y-11469214D01*
X16956643Y-11469214D01*
X16985214Y-11483500D01*
X16999500Y-11512071D01*
X16999500Y-11540643D01*
X16856643Y-11569214D01*
X17113786Y-11654929D02*
X17142357Y-11669214D01*
X17199500Y-11669214D01*
X17228071Y-11654929D01*
X17242357Y-11626357D01*
X17242357Y-11612071D01*
X17228071Y-11583500D01*
X17199500Y-11569214D01*
X17156643Y-11569214D01*
X17128071Y-11554929D01*
X17113786Y-11526357D01*
X17113786Y-11512071D01*
X17128071Y-11483500D01*
X17156643Y-11469214D01*
X17199500Y-11469214D01*
X17228071Y-11483500D01*
X17342357Y-11783500D02*
X17356643Y-11769214D01*
X17385214Y-11726357D01*
X17399500Y-11697786D01*
X17413786Y-11654929D01*
X17428071Y-11583500D01*
X17428071Y-11526357D01*
X17413786Y-11454929D01*
X17399500Y-11412071D01*
X17385214Y-11383500D01*
X17356643Y-11340643D01*
X17342357Y-11326357D01*
X10269856Y-11964856D02*
X10269856Y-11894144D01*
X10199144Y-11894144D01*
X10199144Y-11964856D01*
X10269856Y-11964856D01*
X10728071Y-12065214D02*
X10556643Y-12065214D01*
X10642357Y-12065214D02*
X10642357Y-11765214D01*
X10613786Y-11808071D01*
X10585214Y-11836643D01*
X10556643Y-11850929D01*
X10856643Y-12036643D02*
X10870928Y-12050929D01*
X10856643Y-12065214D01*
X10842357Y-12050929D01*
X10856643Y-12036643D01*
X10856643Y-12065214D01*
X11056643Y-11765214D02*
X11085214Y-11765214D01*
X11113786Y-11779500D01*
X11128071Y-11793786D01*
X11142357Y-11822357D01*
X11156643Y-11879500D01*
X11156643Y-11950929D01*
X11142357Y-12008071D01*
X11128071Y-12036643D01*
X11113786Y-12050929D01*
X11085214Y-12065214D01*
X11056643Y-12065214D01*
X11028071Y-12050929D01*
X11013786Y-12036643D01*
X10999500Y-12008071D01*
X10985214Y-11950929D01*
X10985214Y-11879500D01*
X10999500Y-11822357D01*
X11013786Y-11793786D01*
X11028071Y-11779500D01*
X11056643Y-11765214D01*
X11342357Y-11765214D02*
X11370928Y-11765214D01*
X11399500Y-11779500D01*
X11413786Y-11793786D01*
X11428071Y-11822357D01*
X11442357Y-11879500D01*
X11442357Y-11950929D01*
X11428071Y-12008071D01*
X11413786Y-12036643D01*
X11399500Y-12050929D01*
X11370928Y-12065214D01*
X11342357Y-12065214D01*
X11313786Y-12050929D01*
X11299500Y-12036643D01*
X11285214Y-12008071D01*
X11270928Y-11950929D01*
X11270928Y-11879500D01*
X11285214Y-11822357D01*
X11299500Y-11793786D01*
X11313786Y-11779500D01*
X11342357Y-11765214D01*
X11628071Y-11765214D02*
X11656643Y-11765214D01*
X11685214Y-11779500D01*
X11699500Y-11793786D01*
X11713786Y-11822357D01*
X11728071Y-11879500D01*
X11728071Y-11950929D01*
X11713786Y-12008071D01*
X11699500Y-12036643D01*
X11685214Y-12050929D01*
X11656643Y-12065214D01*
X11628071Y-12065214D01*
X11599500Y-12050929D01*
X11585214Y-12036643D01*
X11570928Y-12008071D01*
X11556643Y-11950929D01*
X11556643Y-11879500D01*
X11570928Y-11822357D01*
X11585214Y-11793786D01*
X11599500Y-11779500D01*
X11628071Y-11765214D01*
X11856643Y-12065214D02*
X11856643Y-11865214D01*
X11856643Y-11893786D02*
X11870928Y-11879500D01*
X11899500Y-11865214D01*
X11942357Y-11865214D01*
X11970928Y-11879500D01*
X11985214Y-11908071D01*
X11985214Y-12065214D01*
X11985214Y-11908071D02*
X11999500Y-11879500D01*
X12028071Y-11865214D01*
X12070928Y-11865214D01*
X12099500Y-11879500D01*
X12113786Y-11908071D01*
X12113786Y-12065214D01*
X12256643Y-12065214D02*
X12256643Y-11865214D01*
X12256643Y-11893786D02*
X12270928Y-11879500D01*
X12299500Y-11865214D01*
X12342357Y-11865214D01*
X12370928Y-11879500D01*
X12385214Y-11908071D01*
X12385214Y-12065214D01*
X12385214Y-11908071D02*
X12399500Y-11879500D01*
X12428071Y-11865214D01*
X12470928Y-11865214D01*
X12499500Y-11879500D01*
X12513786Y-11908071D01*
X12513786Y-12065214D01*
X13099500Y-11750929D02*
X12842357Y-12136643D01*
X13485214Y-11765214D02*
X13513786Y-11765214D01*
X13542357Y-11779500D01*
X13556643Y-11793786D01*
X13570928Y-11822357D01*
X13585214Y-11879500D01*
X13585214Y-11950929D01*
X13570928Y-12008071D01*
X13556643Y-12036643D01*
X13542357Y-12050929D01*
X13513786Y-12065214D01*
X13485214Y-12065214D01*
X13456643Y-12050929D01*
X13442357Y-12036643D01*
X13428071Y-12008071D01*
X13413786Y-11950929D01*
X13413786Y-11879500D01*
X13428071Y-11822357D01*
X13442357Y-11793786D01*
X13456643Y-11779500D01*
X13485214Y-11765214D01*
X13713786Y-12036643D02*
X13728071Y-12050929D01*
X13713786Y-12065214D01*
X13699500Y-12050929D01*
X13713786Y-12036643D01*
X13713786Y-12065214D01*
X13913786Y-11765214D02*
X13942357Y-11765214D01*
X13970928Y-11779500D01*
X13985214Y-11793786D01*
X13999500Y-11822357D01*
X14013786Y-11879500D01*
X14013786Y-11950929D01*
X13999500Y-12008071D01*
X13985214Y-12036643D01*
X13970928Y-12050929D01*
X13942357Y-12065214D01*
X13913786Y-12065214D01*
X13885214Y-12050929D01*
X13870928Y-12036643D01*
X13856643Y-12008071D01*
X13842357Y-11950929D01*
X13842357Y-11879500D01*
X13856643Y-11822357D01*
X13870928Y-11793786D01*
X13885214Y-11779500D01*
X13913786Y-11765214D01*
X14113786Y-11765214D02*
X14299500Y-11765214D01*
X14199500Y-11879500D01*
X14242357Y-11879500D01*
X14270928Y-11893786D01*
X14285214Y-11908071D01*
X14299500Y-11936643D01*
X14299500Y-12008071D01*
X14285214Y-12036643D01*
X14270928Y-12050929D01*
X14242357Y-12065214D01*
X14156643Y-12065214D01*
X14128071Y-12050929D01*
X14113786Y-12036643D01*
X14442357Y-12065214D02*
X14499500Y-12065214D01*
X14528071Y-12050929D01*
X14542357Y-12036643D01*
X14570928Y-11993786D01*
X14585214Y-11936643D01*
X14585214Y-11822357D01*
X14570928Y-11793786D01*
X14556643Y-11779500D01*
X14528071Y-11765214D01*
X14470928Y-11765214D01*
X14442357Y-11779500D01*
X14428071Y-11793786D01*
X14413786Y-11822357D01*
X14413786Y-11893786D01*
X14428071Y-11922357D01*
X14442357Y-11936643D01*
X14470928Y-11950929D01*
X14528071Y-11950929D01*
X14556643Y-11936643D01*
X14570928Y-11922357D01*
X14585214Y-11893786D01*
X14842357Y-11865214D02*
X14842357Y-12065214D01*
X14770928Y-11750929D02*
X14699500Y-11965214D01*
X14885214Y-11965214D01*
X14985214Y-11765214D02*
X14985214Y-11822357D01*
X15099500Y-11765214D02*
X15099500Y-11822357D01*
X15542357Y-12179500D02*
X15528071Y-12165214D01*
X15499500Y-12122357D01*
X15485214Y-12093786D01*
X15470928Y-12050929D01*
X15456643Y-11979500D01*
X15456643Y-11922357D01*
X15470928Y-11850929D01*
X15485214Y-11808071D01*
X15499500Y-11779500D01*
X15528071Y-11736643D01*
X15542357Y-11722357D01*
X15813786Y-12065214D02*
X15642357Y-12065214D01*
X15728071Y-12065214D02*
X15728071Y-11765214D01*
X15699500Y-11808071D01*
X15670928Y-11836643D01*
X15642357Y-11850929D01*
X16085214Y-11765214D02*
X15942357Y-11765214D01*
X15928071Y-11908071D01*
X15942357Y-11893786D01*
X15970928Y-11879500D01*
X16042357Y-11879500D01*
X16070928Y-11893786D01*
X16085214Y-11908071D01*
X16099500Y-11936643D01*
X16099500Y-12008071D01*
X16085214Y-12036643D01*
X16070928Y-12050929D01*
X16042357Y-12065214D01*
X15970928Y-12065214D01*
X15942357Y-12050929D01*
X15928071Y-12036643D01*
X16456643Y-12065214D02*
X16456643Y-11765214D01*
X16585214Y-12065214D02*
X16585214Y-11908071D01*
X16570928Y-11879500D01*
X16542357Y-11865214D01*
X16499500Y-11865214D01*
X16470928Y-11879500D01*
X16456643Y-11893786D01*
X16770928Y-12065214D02*
X16742357Y-12050929D01*
X16728071Y-12036643D01*
X16713786Y-12008071D01*
X16713786Y-11922357D01*
X16728071Y-11893786D01*
X16742357Y-11879500D01*
X16770928Y-11865214D01*
X16813786Y-11865214D01*
X16842357Y-11879500D01*
X16856643Y-11893786D01*
X16870928Y-11922357D01*
X16870928Y-12008071D01*
X16856643Y-12036643D01*
X16842357Y-12050929D01*
X16813786Y-12065214D01*
X16770928Y-12065214D01*
X17042357Y-12065214D02*
X17013786Y-12050929D01*
X16999500Y-12022357D01*
X16999500Y-11765214D01*
X17270928Y-12050929D02*
X17242357Y-12065214D01*
X17185214Y-12065214D01*
X17156643Y-12050929D01*
X17142357Y-12022357D01*
X17142357Y-11908071D01*
X17156643Y-11879500D01*
X17185214Y-11865214D01*
X17242357Y-11865214D01*
X17270928Y-11879500D01*
X17285214Y-11908071D01*
X17285214Y-11936643D01*
X17142357Y-11965214D01*
X17399500Y-12050929D02*
X17428071Y-12065214D01*
X17485214Y-12065214D01*
X17513786Y-12050929D01*
X17528071Y-12022357D01*
X17528071Y-12008071D01*
X17513786Y-11979500D01*
X17485214Y-11965214D01*
X17442357Y-11965214D01*
X17413786Y-11950929D01*
X17399500Y-11922357D01*
X17399500Y-11908071D01*
X17413786Y-11879500D01*
X17442357Y-11865214D01*
X17485214Y-11865214D01*
X17513786Y-11879500D01*
X17628071Y-12179500D02*
X17642357Y-12165214D01*
X17670928Y-12122357D01*
X17685214Y-12093786D01*
X17699500Y-12050929D01*
X17713786Y-11979500D01*
X17713786Y-11922357D01*
X17699500Y-11850929D01*
X17685214Y-11808071D01*
X17670928Y-11779500D01*
X17642357Y-11736643D01*
X17628071Y-11722357D01*
M02*
