G04 #@! TF.GenerationSoftware,KiCad,Pcbnew,(5.1.10)-1*
G04 #@! TF.CreationDate,2021-11-12T00:22:47+01:00*
G04 #@! TF.ProjectId,devboard-stm32g030f6p6,64657662-6f61-4726-942d-73746d333267,rev?*
G04 #@! TF.SameCoordinates,Original*
G04 #@! TF.FileFunction,Copper,L4,Bot*
G04 #@! TF.FilePolarity,Positive*
%FSLAX46Y46*%
G04 Gerber Fmt 4.6, Leading zero omitted, Abs format (unit mm)*
G04 Created by KiCad (PCBNEW (5.1.10)-1) date 2021-11-12 00:22:47*
%MOMM*%
%LPD*%
G01*
G04 APERTURE LIST*
G04 #@! TA.AperFunction,ComponentPad*
%ADD10O,1.700000X1.700000*%
G04 #@! TD*
G04 #@! TA.AperFunction,ComponentPad*
%ADD11R,1.700000X1.700000*%
G04 #@! TD*
G04 #@! TA.AperFunction,ComponentPad*
%ADD12O,1.070000X2.140000*%
G04 #@! TD*
G04 #@! TA.AperFunction,ComponentPad*
%ADD13C,1.300000*%
G04 #@! TD*
G04 #@! TA.AperFunction,ViaPad*
%ADD14C,0.400000*%
G04 #@! TD*
G04 #@! TA.AperFunction,Conductor*
%ADD15C,0.254000*%
G04 #@! TD*
G04 APERTURE END LIST*
D10*
X119380000Y-96520000D03*
X119380000Y-93980000D03*
X119380000Y-91440000D03*
X119380000Y-88900000D03*
X119380000Y-86360000D03*
X119380000Y-83820000D03*
D11*
X119380000Y-81280000D03*
D10*
X104140000Y-96520000D03*
X104140000Y-93980000D03*
X104140000Y-91440000D03*
X104140000Y-88900000D03*
X104140000Y-86360000D03*
X104140000Y-83820000D03*
X104140000Y-81280000D03*
D11*
X104140000Y-78740000D03*
D12*
X106890000Y-72870000D03*
X114090000Y-72870000D03*
D13*
X108065000Y-75520000D03*
X112915000Y-75520000D03*
D14*
X114300000Y-94488000D03*
X110998000Y-96520000D03*
X106300000Y-87300000D03*
X106950000Y-87300000D03*
X107600000Y-87300000D03*
X108250000Y-87300000D03*
X106300000Y-90600000D03*
X106950000Y-90600000D03*
X107600000Y-90600000D03*
X108250000Y-90600000D03*
X109550000Y-87300000D03*
X111500000Y-90600000D03*
X110850000Y-90600000D03*
X112014000Y-80518000D03*
X108204000Y-80518000D03*
X106934000Y-80518000D03*
X109474000Y-88138000D03*
X112776000Y-86360000D03*
X112145000Y-87300000D03*
X115062000Y-88900000D03*
X109728000Y-76581000D03*
X109220000Y-74422000D03*
X108712000Y-74422000D03*
X108712000Y-73914000D03*
X109220000Y-73914000D03*
X109728000Y-73914000D03*
X109728000Y-74422000D03*
X109220000Y-76581000D03*
X108712000Y-76581000D03*
X109601000Y-96774000D03*
X116332000Y-93599000D03*
X116840000Y-93599000D03*
X116840000Y-94107000D03*
X116332000Y-94107000D03*
X115697000Y-84455000D03*
X114300000Y-81153000D03*
X109347000Y-84328000D03*
X109855000Y-84328000D03*
X109855000Y-84836000D03*
X109347000Y-84836000D03*
X106934000Y-95250000D03*
X118110000Y-76708000D03*
X116840000Y-73914000D03*
X104902000Y-73914000D03*
X111252000Y-94234000D03*
X108458000Y-89154000D03*
X106426000Y-88646000D03*
X110689539Y-88083539D03*
D15*
X112014000Y-85598000D02*
X109474000Y-88138000D01*
X112014000Y-80518000D02*
X112014000Y-85598000D01*
X109019999Y-88355921D02*
X110072078Y-89408000D01*
X110309001Y-82623001D02*
X110309001Y-85869077D01*
X108204000Y-80518000D02*
X110309001Y-82623001D01*
X109095999Y-87082079D02*
X110309001Y-85869077D01*
X109095999Y-87664752D02*
X109095999Y-87082079D01*
X109019999Y-87740752D02*
X109095999Y-87664752D01*
X109019999Y-88355921D02*
X109019999Y-87740752D01*
X111500000Y-90578078D02*
X111500000Y-90600000D01*
X110329922Y-89408000D02*
X111500000Y-90578078D01*
X110072078Y-89408000D02*
X110329922Y-89408000D01*
X108638991Y-87582931D02*
X108638991Y-88513741D01*
X108704001Y-87517921D02*
X108638991Y-87582931D01*
X108704001Y-82288001D02*
X108704001Y-87517921D01*
X108638991Y-88513741D02*
X109914258Y-89789008D01*
X106934000Y-80518000D02*
X108704001Y-82288001D01*
X110039008Y-89789008D02*
X110850000Y-90600000D01*
X109914258Y-89789008D02*
X110039008Y-89789008D01*
X104140000Y-79646078D02*
X104140000Y-78740000D01*
X108250000Y-83756078D02*
X104140000Y-79646078D01*
X108250000Y-87300000D02*
X108250000Y-83756078D01*
X104140000Y-82186078D02*
X104140000Y-81280000D01*
X107600000Y-85646078D02*
X104140000Y-82186078D01*
X107600000Y-87300000D02*
X107600000Y-85646078D01*
X106950000Y-86630000D02*
X104140000Y-83820000D01*
X106950000Y-87300000D02*
X106950000Y-86630000D01*
X105080000Y-87300000D02*
X104140000Y-86360000D01*
X106300000Y-87300000D02*
X105080000Y-87300000D01*
X106300000Y-90600000D02*
X104854000Y-89154000D01*
X104600000Y-88900000D02*
X104854000Y-89154000D01*
X104140000Y-88900000D02*
X104600000Y-88900000D01*
X106131922Y-91440000D02*
X106950000Y-90621922D01*
X106950000Y-90621922D02*
X106950000Y-90600000D01*
X104140000Y-91440000D02*
X106131922Y-91440000D01*
X104220000Y-93980000D02*
X107600000Y-90600000D01*
X104140000Y-93980000D02*
X104220000Y-93980000D01*
X108250000Y-92410000D02*
X104140000Y-96520000D01*
X108250000Y-90600000D02*
X108250000Y-92410000D01*
X119380000Y-88900000D02*
X116332000Y-88900000D01*
X113290999Y-88445999D02*
X112145000Y-87300000D01*
X115877999Y-88445999D02*
X113290999Y-88445999D01*
X116332000Y-88900000D02*
X115877999Y-88445999D01*
X112413078Y-86360000D02*
X110689539Y-88083539D01*
X112776000Y-86360000D02*
X112413078Y-86360000D01*
M02*
